<mxfile host="app.diagrams.net" modified="2024-05-26T21:01:14.886Z" agent="Mozilla/5.0 (Windows NT 10.0; Win64; x64) AppleWebKit/537.36 (KHTML, like Gecko) Chrome/125.0.0.0 Safari/537.36 Edg/125.0.0.0" etag="jOJ8Pq7zp3DfS9-H-pfR" version="24.4.8" type="device">
  <diagram name="Page-1" id="DsdpxroDeolIMElc44aL">
    <mxGraphModel dx="1386" dy="785" grid="1" gridSize="10" guides="1" tooltips="1" connect="1" arrows="1" fold="1" page="1" pageScale="1" pageWidth="850" pageHeight="1100" math="0" shadow="0">
      <root>
        <mxCell id="0" />
        <mxCell id="1" parent="0" />
        <mxCell id="lCDGfiw2MImcsjdPT1np-1" value="PaperTrader APP" style="text;html=1;align=center;verticalAlign=middle;whiteSpace=wrap;rounded=0;" vertex="1" parent="1">
          <mxGeometry x="300" width="250" height="20" as="geometry" />
        </mxCell>
        <mxCell id="lCDGfiw2MImcsjdPT1np-2" value="Enter Stock" style="rounded=1;whiteSpace=wrap;html=1;" vertex="1" parent="1">
          <mxGeometry x="290" y="30" width="250" height="60" as="geometry" />
        </mxCell>
        <mxCell id="lCDGfiw2MImcsjdPT1np-8" value="" style="shape=crossbar;whiteSpace=wrap;html=1;rounded=1;" vertex="1" parent="1">
          <mxGeometry x="170" y="510" width="550" height="20" as="geometry" />
        </mxCell>
        <mxCell id="lCDGfiw2MImcsjdPT1np-9" value="" style="shape=crossbar;whiteSpace=wrap;html=1;rounded=1;direction=south;" vertex="1" parent="1">
          <mxGeometry x="160" y="230" width="20" height="290" as="geometry" />
        </mxCell>
        <mxCell id="lCDGfiw2MImcsjdPT1np-50" value="" style="fillColor=#23445D;strokeColor=none;" vertex="1" parent="1">
          <mxGeometry x="620" y="400" width="30" height="70" as="geometry" />
        </mxCell>
        <mxCell id="lCDGfiw2MImcsjdPT1np-53" value="" style="fillColor=#10739E;strokeColor=none;" vertex="1" parent="1">
          <mxGeometry x="520" y="300" width="30" height="100" as="geometry" />
        </mxCell>
        <mxCell id="lCDGfiw2MImcsjdPT1np-54" value="" style="shape=mxgraph.arrows2.arrow;dy=0.4;dx=16;notch=0;direction=north;fillColor=#1699D3;strokeColor=none;" vertex="1" parent="lCDGfiw2MImcsjdPT1np-53">
          <mxGeometry x="3" y="30" width="24" height="70" as="geometry" />
        </mxCell>
        <mxCell id="lCDGfiw2MImcsjdPT1np-55" value="Label" style="text;html=1;align=center;verticalAlign=middle;whiteSpace=wrap;fontColor=#FFFFFF;fontSize=10;strokeColor=none;fillColor=none;" vertex="1" parent="lCDGfiw2MImcsjdPT1np-53">
          <mxGeometry x="3" width="30" height="20" as="geometry" />
        </mxCell>
        <mxCell id="lCDGfiw2MImcsjdPT1np-56" value="" style="fillColor=#F2931E;strokeColor=none;" vertex="1" parent="1">
          <mxGeometry x="420" y="330" width="30" height="120" as="geometry" />
        </mxCell>
        <mxCell id="lCDGfiw2MImcsjdPT1np-57" value="" style="shape=mxgraph.arrows2.arrow;dy=0.4;dx=16;notch=0;direction=south;fillColor=#F5AB50;strokeColor=none;" vertex="1" parent="lCDGfiw2MImcsjdPT1np-56">
          <mxGeometry x="3" width="24" height="80" as="geometry" />
        </mxCell>
        <mxCell id="lCDGfiw2MImcsjdPT1np-58" value="Label" style="text;html=1;align=center;verticalAlign=middle;whiteSpace=wrap;fontColor=#FFFFFF;fontSize=10;strokeColor=none;fillColor=none;" vertex="1" parent="lCDGfiw2MImcsjdPT1np-56">
          <mxGeometry width="30" height="20" as="geometry" />
        </mxCell>
        <mxCell id="lCDGfiw2MImcsjdPT1np-59" value="" style="fillColor=#AE4132;strokeColor=none;" vertex="1" parent="1">
          <mxGeometry x="200" y="240" width="30" height="130" as="geometry" />
        </mxCell>
        <mxCell id="lCDGfiw2MImcsjdPT1np-83" style="edgeStyle=orthogonalEdgeStyle;rounded=0;orthogonalLoop=1;jettySize=auto;html=1;exitX=1;exitY=0.5;exitDx=0;exitDy=0;exitPerimeter=0;" edge="1" parent="lCDGfiw2MImcsjdPT1np-59" source="lCDGfiw2MImcsjdPT1np-60" target="lCDGfiw2MImcsjdPT1np-59">
          <mxGeometry relative="1" as="geometry" />
        </mxCell>
        <mxCell id="lCDGfiw2MImcsjdPT1np-60" value="" style="shape=mxgraph.arrows2.arrow;dy=0.4;dx=16;notch=0;direction=north;fillColor=#E85642;strokeColor=none;" vertex="1" parent="lCDGfiw2MImcsjdPT1np-59">
          <mxGeometry x="3" y="80" width="24" height="50" as="geometry" />
        </mxCell>
        <mxCell id="lCDGfiw2MImcsjdPT1np-61" value="Label" style="text;html=1;align=center;verticalAlign=middle;whiteSpace=wrap;fontColor=#FFFFFF;fontSize=10;strokeColor=none;fillColor=none;" vertex="1" parent="lCDGfiw2MImcsjdPT1np-59">
          <mxGeometry width="30" height="20" as="geometry" />
        </mxCell>
        <mxCell id="lCDGfiw2MImcsjdPT1np-62" value="" style="fillColor=#12AAB5;strokeColor=none;" vertex="1" parent="1">
          <mxGeometry x="290" y="330" width="30" height="80" as="geometry" />
        </mxCell>
        <mxCell id="lCDGfiw2MImcsjdPT1np-63" value="" style="shape=mxgraph.arrows2.arrow;dy=0.4;dx=16;notch=0;direction=south;fillColor=#64BBE2;strokeColor=none;" vertex="1" parent="lCDGfiw2MImcsjdPT1np-62">
          <mxGeometry x="3" width="24" height="30" as="geometry" />
        </mxCell>
        <mxCell id="lCDGfiw2MImcsjdPT1np-64" value="Label" style="text;html=1;align=center;verticalAlign=middle;whiteSpace=wrap;fontColor=#FFFFFF;fontSize=10;strokeColor=none;fillColor=none;" vertex="1" parent="lCDGfiw2MImcsjdPT1np-62">
          <mxGeometry width="30" height="20" as="geometry" />
        </mxCell>
        <mxCell id="lCDGfiw2MImcsjdPT1np-65" value="" style="fillColor=#23445D;strokeColor=none;" vertex="1" parent="1">
          <mxGeometry x="360" y="390" width="30" height="70" as="geometry" />
        </mxCell>
        <mxCell id="lCDGfiw2MImcsjdPT1np-66" value="" style="shape=mxgraph.arrows2.arrow;dy=0.4;dx=16;notch=0;direction=north;fillColor=#2F5B7C;strokeColor=none;" vertex="1" parent="lCDGfiw2MImcsjdPT1np-65">
          <mxGeometry x="3" y="10" width="24" height="60" as="geometry" />
        </mxCell>
        <mxCell id="lCDGfiw2MImcsjdPT1np-67" value="Label" style="text;html=1;align=center;verticalAlign=middle;whiteSpace=wrap;fontColor=#FFFFFF;fontSize=10;strokeColor=none;fillColor=none;" vertex="1" parent="lCDGfiw2MImcsjdPT1np-65">
          <mxGeometry width="30" height="20" as="geometry" />
        </mxCell>
        <mxCell id="lCDGfiw2MImcsjdPT1np-77" value="Buy Stock" style="text;html=1;align=center;verticalAlign=middle;whiteSpace=wrap;rounded=0;" vertex="1" parent="1">
          <mxGeometry x="440" y="535" width="60" height="30" as="geometry" />
        </mxCell>
        <mxCell id="lCDGfiw2MImcsjdPT1np-79" value="Add Stock" style="text;html=1;align=center;verticalAlign=middle;whiteSpace=wrap;rounded=0;" vertex="1" parent="1">
          <mxGeometry x="290" y="540" width="60" height="30" as="geometry" />
        </mxCell>
        <mxCell id="lCDGfiw2MImcsjdPT1np-80" value="Price" style="text;html=1;align=center;verticalAlign=middle;whiteSpace=wrap;rounded=0;rotation=270;" vertex="1" parent="1">
          <mxGeometry x="110" y="360" width="60" height="30" as="geometry" />
        </mxCell>
        <mxCell id="lCDGfiw2MImcsjdPT1np-81" value="Date" style="text;html=1;align=center;verticalAlign=middle;whiteSpace=wrap;rounded=0;" vertex="1" parent="1">
          <mxGeometry x="160" y="520" width="60" height="30" as="geometry" />
        </mxCell>
        <mxCell id="lCDGfiw2MImcsjdPT1np-84" value="1min" style="rounded=0;whiteSpace=wrap;html=1;" vertex="1" parent="1">
          <mxGeometry x="190" y="140" width="70" height="40" as="geometry" />
        </mxCell>
        <mxCell id="lCDGfiw2MImcsjdPT1np-85" value="5min" style="rounded=0;whiteSpace=wrap;html=1;" vertex="1" parent="1">
          <mxGeometry x="260" y="140" width="70" height="40" as="geometry" />
        </mxCell>
        <mxCell id="lCDGfiw2MImcsjdPT1np-86" value="15min" style="rounded=0;whiteSpace=wrap;html=1;" vertex="1" parent="1">
          <mxGeometry x="330" y="140" width="70" height="40" as="geometry" />
        </mxCell>
        <mxCell id="lCDGfiw2MImcsjdPT1np-87" value="30" style="rounded=0;whiteSpace=wrap;html=1;" vertex="1" parent="1">
          <mxGeometry x="400" y="140" width="70" height="40" as="geometry" />
        </mxCell>
        <mxCell id="lCDGfiw2MImcsjdPT1np-88" value="60" style="rounded=0;whiteSpace=wrap;html=1;" vertex="1" parent="1">
          <mxGeometry x="470" y="140" width="70" height="40" as="geometry" />
        </mxCell>
        <mxCell id="lCDGfiw2MImcsjdPT1np-89" value="daily" style="rounded=0;whiteSpace=wrap;html=1;" vertex="1" parent="1">
          <mxGeometry x="540" y="140" width="70" height="40" as="geometry" />
        </mxCell>
        <mxCell id="lCDGfiw2MImcsjdPT1np-90" value="weekly" style="rounded=0;whiteSpace=wrap;html=1;" vertex="1" parent="1">
          <mxGeometry x="610" y="140" width="70" height="40" as="geometry" />
        </mxCell>
        <mxCell id="lCDGfiw2MImcsjdPT1np-91" value="monthly" style="rounded=0;whiteSpace=wrap;html=1;" vertex="1" parent="1">
          <mxGeometry x="680" y="140" width="70" height="40" as="geometry" />
        </mxCell>
      </root>
    </mxGraphModel>
  </diagram>
</mxfile>
